<svg xmlns="http://www.w3.org/2000/svg" width="100" height="100"><path fill="#f9d54b" d="M-103.036 138.244a292.944 292.944 0 1 1-585.888 0 292.944 292.944 0 1 1 585.888 0z" transform="translate(110.828 28.764) scale(.15361)"/><path fill="#3e6172" d="m26.063 72.344-8.657 10.781c-1.387 1.73-1.135 4.237.594 5.625l1.063.844a3.993 3.993 0 0 0 5.625-.625L38.03 72.344H26.063zM47.563 72.344l13.343 16.625a3.993 3.993 0 0 0 5.625.625l1.063-.844c1.73-1.388 1.981-3.896.594-5.625L59.53 72.344H47.563z" transform="translate(22.977 23.56) scale(.60024)"/><path fill="#6ebec5" d="M13.531 29.906a7.763 7.763 0 0 0-7.781 7.782v27.75a7.763 7.763 0 0 0 7.781 7.78H76.5a7.763 7.763 0 0 0 7.781-7.78v-27.75a7.763 7.763 0 0 0-7.781-7.782H13.531zM77.5 32.844a3.222 3.222 0 0 1 3.219 3.218 3.222 3.222 0 0 1-3.219 3.22 3.222 3.222 0 0 1-3.219-3.22 3.222 3.222 0 0 1 3.219-3.218z" transform="translate(22.977 23.56) scale(.60024)"/><path fill="#6ebec5" d="M85.715 1011.792v-16.41L95 987.724l-.1 31.18z" transform="translate(22.977 -548.087) scale(.60024)"/><path fill="#3e6172" d="M28.036 9.893c0 4.24-3.838 7.678-8.572 7.678-4.734 0-8.571-3.437-8.571-7.678 0-4.24 3.837-7.679 8.571-7.679s8.572 3.438 8.572 7.679z" transform="translate(27.068 27.685) scale(.7189)"/><path fill="#3e6172" d="M28.036 9.893c0 4.24-3.838 7.678-8.572 7.678-4.734 0-8.571-3.437-8.571-7.678 0-4.24 3.837-7.679 8.571-7.679s8.572 3.438 8.572 7.679z" transform="translate(42.616 29.734) scale(.60232)"/><path fill="#3e6172" d="M70.458 46.083a2.652 2.652 0 1 1-5.303 0 2.652 2.652 0 1 1 5.303 0z" transform="translate(37.713 23.631) scale(.46802)"/></svg>